<mxfile modified="2024-01-23T02:35:46.323Z" host="app.diagrams.net" agent="Mozilla/5.0 (X11; Linux x86_64) AppleWebKit/537.36 (KHTML, like Gecko) Chrome/120.0.0.0 Safari/537.36" etag="uozVxF-beVNpz9-FUkzS" version="22.1.21" type="github">
  <diagram id="l8hXMBHkgcEJcSW0mbfh" name="Page-1">
    <mxGraphModel dx="1859" dy="1136" grid="1" gridSize="10" guides="1" tooltips="1" connect="1" arrows="1" fold="1" page="1" pageScale="1" pageWidth="1169" pageHeight="827" math="0" shadow="0">
      <root>
        <mxCell id="0" />
        <mxCell id="1" parent="0" />
        <mxCell id="XNmCgsL8p85qXKA9TPhM-18" value="" style="edgeStyle=orthogonalEdgeStyle;rounded=0;orthogonalLoop=1;jettySize=auto;html=1;" edge="1" parent="1" source="XNmCgsL8p85qXKA9TPhM-3" target="XNmCgsL8p85qXKA9TPhM-10">
          <mxGeometry relative="1" as="geometry" />
        </mxCell>
        <mxCell id="XNmCgsL8p85qXKA9TPhM-19" style="edgeStyle=orthogonalEdgeStyle;rounded=0;orthogonalLoop=1;jettySize=auto;html=1;exitX=0.12;exitY=0.1;exitDx=0;exitDy=0;exitPerimeter=0;" edge="1" parent="1" source="XNmCgsL8p85qXKA9TPhM-3" target="XNmCgsL8p85qXKA9TPhM-11">
          <mxGeometry relative="1" as="geometry" />
        </mxCell>
        <mxCell id="XNmCgsL8p85qXKA9TPhM-22" value="" style="edgeStyle=orthogonalEdgeStyle;rounded=0;orthogonalLoop=1;jettySize=auto;html=1;" edge="1" parent="1" source="XNmCgsL8p85qXKA9TPhM-3" target="XNmCgsL8p85qXKA9TPhM-21">
          <mxGeometry relative="1" as="geometry" />
        </mxCell>
        <mxCell id="XNmCgsL8p85qXKA9TPhM-23" style="edgeStyle=orthogonalEdgeStyle;rounded=0;orthogonalLoop=1;jettySize=auto;html=1;exitX=0.12;exitY=0.9;exitDx=0;exitDy=0;exitPerimeter=0;" edge="1" parent="1" source="XNmCgsL8p85qXKA9TPhM-3" target="XNmCgsL8p85qXKA9TPhM-20">
          <mxGeometry relative="1" as="geometry" />
        </mxCell>
        <mxCell id="XNmCgsL8p85qXKA9TPhM-24" style="edgeStyle=orthogonalEdgeStyle;rounded=0;orthogonalLoop=1;jettySize=auto;html=1;exitX=0.88;exitY=0.1;exitDx=0;exitDy=0;exitPerimeter=0;" edge="1" parent="1" source="XNmCgsL8p85qXKA9TPhM-3" target="XNmCgsL8p85qXKA9TPhM-17">
          <mxGeometry relative="1" as="geometry" />
        </mxCell>
        <mxCell id="XNmCgsL8p85qXKA9TPhM-3" value="Cyber Inc" style="shape=mxgraph.cisco.routers.atm_router;sketch=0;html=1;pointerEvents=1;dashed=0;fillColor=#036897;strokeColor=#ffffff;strokeWidth=2;verticalLabelPosition=bottom;verticalAlign=top;align=center;outlineConnect=0;" vertex="1" parent="1">
          <mxGeometry x="200" y="310" width="78" height="53" as="geometry" />
        </mxCell>
        <mxCell id="XNmCgsL8p85qXKA9TPhM-41" style="edgeStyle=orthogonalEdgeStyle;rounded=0;orthogonalLoop=1;jettySize=auto;html=1;exitX=0;exitY=0.5;exitDx=0;exitDy=0;exitPerimeter=0;" edge="1" parent="1" source="XNmCgsL8p85qXKA9TPhM-4">
          <mxGeometry relative="1" as="geometry">
            <mxPoint x="590" y="390" as="targetPoint" />
          </mxGeometry>
        </mxCell>
        <mxCell id="XNmCgsL8p85qXKA9TPhM-4" value="Pivot-02" style="shape=mxgraph.cisco.routers.atm_router;sketch=0;html=1;pointerEvents=1;dashed=0;fillColor=#036897;strokeColor=#ffffff;strokeWidth=2;verticalLabelPosition=bottom;verticalAlign=top;align=center;outlineConnect=0;" vertex="1" parent="1">
          <mxGeometry x="670" y="350" width="78" height="53" as="geometry" />
        </mxCell>
        <mxCell id="XNmCgsL8p85qXKA9TPhM-44" style="edgeStyle=orthogonalEdgeStyle;rounded=0;orthogonalLoop=1;jettySize=auto;html=1;exitX=1;exitY=0.5;exitDx=0;exitDy=0;exitPerimeter=0;entryX=0.5;entryY=1;entryDx=0;entryDy=0;" edge="1" parent="1" source="XNmCgsL8p85qXKA9TPhM-5" target="XNmCgsL8p85qXKA9TPhM-39">
          <mxGeometry relative="1" as="geometry" />
        </mxCell>
        <mxCell id="XNmCgsL8p85qXKA9TPhM-5" value="Blue-Pivot" style="shape=mxgraph.cisco.routers.atm_router;sketch=0;html=1;pointerEvents=1;dashed=0;fillColor=#036897;strokeColor=#ffffff;strokeWidth=2;verticalLabelPosition=bottom;verticalAlign=top;align=center;outlineConnect=0;" vertex="1" parent="1">
          <mxGeometry x="456" y="489" width="78" height="53" as="geometry" />
        </mxCell>
        <mxCell id="XNmCgsL8p85qXKA9TPhM-26" style="edgeStyle=orthogonalEdgeStyle;rounded=0;orthogonalLoop=1;jettySize=auto;html=1;exitX=0.98;exitY=0;exitDx=0;exitDy=0;exitPerimeter=0;" edge="1" parent="1" source="XNmCgsL8p85qXKA9TPhM-6" target="XNmCgsL8p85qXKA9TPhM-5">
          <mxGeometry relative="1" as="geometry" />
        </mxCell>
        <mxCell id="XNmCgsL8p85qXKA9TPhM-6" value="Blue-01" style="shape=mxgraph.cisco.computers_and_peripherals.laptop;sketch=0;html=1;pointerEvents=1;dashed=0;fillColor=#036897;strokeColor=#ffffff;strokeWidth=2;verticalLabelPosition=bottom;verticalAlign=top;align=center;outlineConnect=0;" vertex="1" parent="1">
          <mxGeometry x="200" y="630" width="90" height="61" as="geometry" />
        </mxCell>
        <mxCell id="XNmCgsL8p85qXKA9TPhM-30" style="edgeStyle=orthogonalEdgeStyle;rounded=0;orthogonalLoop=1;jettySize=auto;html=1;exitX=0.5;exitY=0;exitDx=0;exitDy=0;exitPerimeter=0;" edge="1" parent="1">
          <mxGeometry relative="1" as="geometry">
            <mxPoint x="494" y="540" as="targetPoint" />
            <mxPoint x="409" y="630" as="sourcePoint" />
          </mxGeometry>
        </mxCell>
        <mxCell id="XNmCgsL8p85qXKA9TPhM-7" value="Blue-02" style="shape=mxgraph.cisco.computers_and_peripherals.laptop;sketch=0;html=1;pointerEvents=1;dashed=0;fillColor=#036897;strokeColor=#ffffff;strokeWidth=2;verticalLabelPosition=bottom;verticalAlign=top;align=center;outlineConnect=0;" vertex="1" parent="1">
          <mxGeometry x="370" y="630" width="90" height="61" as="geometry" />
        </mxCell>
        <mxCell id="XNmCgsL8p85qXKA9TPhM-8" value="Blue-03" style="shape=mxgraph.cisco.computers_and_peripherals.laptop;sketch=0;html=1;pointerEvents=1;dashed=0;fillColor=#036897;strokeColor=#ffffff;strokeWidth=2;verticalLabelPosition=bottom;verticalAlign=top;align=center;outlineConnect=0;" vertex="1" parent="1">
          <mxGeometry x="540" y="630" width="90" height="61" as="geometry" />
        </mxCell>
        <mxCell id="XNmCgsL8p85qXKA9TPhM-29" style="edgeStyle=orthogonalEdgeStyle;rounded=0;orthogonalLoop=1;jettySize=auto;html=1;exitX=0.5;exitY=0;exitDx=0;exitDy=0;exitPerimeter=0;" edge="1" parent="1" source="XNmCgsL8p85qXKA9TPhM-9" target="XNmCgsL8p85qXKA9TPhM-5">
          <mxGeometry relative="1" as="geometry" />
        </mxCell>
        <mxCell id="XNmCgsL8p85qXKA9TPhM-9" value="Blue-04" style="shape=mxgraph.cisco.computers_and_peripherals.laptop;sketch=0;html=1;pointerEvents=1;dashed=0;fillColor=#036897;strokeColor=#ffffff;strokeWidth=2;verticalLabelPosition=bottom;verticalAlign=top;align=center;outlineConnect=0;" vertex="1" parent="1">
          <mxGeometry x="710" y="630" width="90" height="61" as="geometry" />
        </mxCell>
        <mxCell id="XNmCgsL8p85qXKA9TPhM-10" value="Management" style="shape=mxgraph.cisco.computers_and_peripherals.workstation;sketch=0;html=1;pointerEvents=1;dashed=0;fillColor=#036897;strokeColor=#ffffff;strokeWidth=2;verticalLabelPosition=bottom;verticalAlign=top;align=center;outlineConnect=0;" vertex="1" parent="1">
          <mxGeometry x="198" y="150" width="83" height="62" as="geometry" />
        </mxCell>
        <mxCell id="XNmCgsL8p85qXKA9TPhM-11" value="Human Resources" style="shape=mxgraph.cisco.computers_and_peripherals.workstation;sketch=0;html=1;pointerEvents=1;dashed=0;fillColor=#036897;strokeColor=#ffffff;strokeWidth=2;verticalLabelPosition=bottom;verticalAlign=top;align=center;outlineConnect=0;" vertex="1" parent="1">
          <mxGeometry x="40" y="230" width="83" height="62" as="geometry" />
        </mxCell>
        <mxCell id="XNmCgsL8p85qXKA9TPhM-12" value="Firewall" style="shape=mxgraph.cisco.security.firewall;sketch=0;html=1;pointerEvents=1;dashed=0;fillColor=#036897;strokeColor=#ffffff;strokeWidth=2;verticalLabelPosition=bottom;verticalAlign=top;align=center;outlineConnect=0;" vertex="1" parent="1">
          <mxGeometry x="330" y="283" width="29" height="67" as="geometry" />
        </mxCell>
        <mxCell id="XNmCgsL8p85qXKA9TPhM-40" style="edgeStyle=orthogonalEdgeStyle;rounded=0;orthogonalLoop=1;jettySize=auto;html=1;exitX=0.75;exitY=1;exitDx=0;exitDy=0;entryX=1;entryY=0.5;entryDx=0;entryDy=0;" edge="1" parent="1" source="XNmCgsL8p85qXKA9TPhM-17" target="XNmCgsL8p85qXKA9TPhM-39">
          <mxGeometry relative="1" as="geometry">
            <Array as="points">
              <mxPoint x="718" y="330" />
              <mxPoint x="590" y="330" />
            </Array>
          </mxGeometry>
        </mxCell>
        <mxCell id="XNmCgsL8p85qXKA9TPhM-17" value="" style="whiteSpace=wrap;html=1;align=center;" vertex="1" parent="1">
          <mxGeometry x="350" y="90" width="491" height="150" as="geometry" />
        </mxCell>
        <mxCell id="XNmCgsL8p85qXKA9TPhM-13" value="Web Service" style="shape=mxgraph.cisco.servers.microwebserver;sketch=0;html=1;pointerEvents=1;dashed=0;fillColor=#036897;strokeColor=#ffffff;strokeWidth=2;verticalLabelPosition=bottom;verticalAlign=top;align=center;outlineConnect=0;" vertex="1" parent="1">
          <mxGeometry x="437.5" y="133.5" width="77" height="51" as="geometry" />
        </mxCell>
        <mxCell id="XNmCgsL8p85qXKA9TPhM-14" value="File Server" style="shape=mxgraph.cisco.servers.file_server;sketch=0;html=1;pointerEvents=1;dashed=0;fillColor=#036897;strokeColor=#ffffff;strokeWidth=2;verticalLabelPosition=bottom;verticalAlign=top;align=center;outlineConnect=0;" vertex="1" parent="1">
          <mxGeometry x="570.5" y="133.5" width="43" height="58" as="geometry" />
        </mxCell>
        <mxCell id="XNmCgsL8p85qXKA9TPhM-15" value="WWW Server" style="shape=mxgraph.cisco.servers.www_server;sketch=0;html=1;pointerEvents=1;dashed=0;fillColor=#036897;strokeColor=#ffffff;strokeWidth=2;verticalLabelPosition=bottom;verticalAlign=top;align=center;outlineConnect=0;" vertex="1" parent="1">
          <mxGeometry x="687.5" y="131.5" width="66" height="67" as="geometry" />
        </mxCell>
        <mxCell id="XNmCgsL8p85qXKA9TPhM-20" value="IT-Computer" style="shape=mxgraph.cisco.computers_and_peripherals.workstation;sketch=0;html=1;pointerEvents=1;dashed=0;fillColor=#036897;strokeColor=#ffffff;strokeWidth=2;verticalLabelPosition=bottom;verticalAlign=top;align=center;outlineConnect=0;" vertex="1" parent="1">
          <mxGeometry x="40" y="363" width="83" height="62" as="geometry" />
        </mxCell>
        <mxCell id="XNmCgsL8p85qXKA9TPhM-21" value="Finance" style="shape=mxgraph.cisco.computers_and_peripherals.workstation;sketch=0;html=1;pointerEvents=1;dashed=0;fillColor=#036897;strokeColor=#ffffff;strokeWidth=2;verticalLabelPosition=bottom;verticalAlign=top;align=center;outlineConnect=0;" vertex="1" parent="1">
          <mxGeometry x="197.5" y="430" width="83" height="62" as="geometry" />
        </mxCell>
        <mxCell id="XNmCgsL8p85qXKA9TPhM-25" style="edgeStyle=orthogonalEdgeStyle;rounded=0;orthogonalLoop=1;jettySize=auto;html=1;exitX=0.5;exitY=1;exitDx=0;exitDy=0;exitPerimeter=0;" edge="1" parent="1" source="XNmCgsL8p85qXKA9TPhM-12" target="XNmCgsL8p85qXKA9TPhM-12">
          <mxGeometry relative="1" as="geometry" />
        </mxCell>
        <mxCell id="XNmCgsL8p85qXKA9TPhM-28" style="edgeStyle=orthogonalEdgeStyle;rounded=0;orthogonalLoop=1;jettySize=auto;html=1;exitX=0.5;exitY=0;exitDx=0;exitDy=0;exitPerimeter=0;entryX=0.5;entryY=1;entryDx=0;entryDy=0;entryPerimeter=0;" edge="1" parent="1" source="XNmCgsL8p85qXKA9TPhM-8" target="XNmCgsL8p85qXKA9TPhM-5">
          <mxGeometry relative="1" as="geometry" />
        </mxCell>
        <mxCell id="XNmCgsL8p85qXKA9TPhM-31" value="Pivot-01" style="shape=mxgraph.cisco.routers.atm_router;sketch=0;html=1;pointerEvents=1;dashed=0;fillColor=#036897;strokeColor=#ffffff;strokeWidth=2;verticalLabelPosition=bottom;verticalAlign=top;align=center;outlineConnect=0;" vertex="1" parent="1">
          <mxGeometry x="810" y="350" width="78" height="53" as="geometry" />
        </mxCell>
        <mxCell id="XNmCgsL8p85qXKA9TPhM-32" value="Red-01" style="shape=mxgraph.cisco.computers_and_peripherals.laptop;sketch=0;html=1;pointerEvents=1;dashed=0;fillColor=#036897;strokeColor=#ffffff;strokeWidth=2;verticalLabelPosition=bottom;verticalAlign=top;align=center;outlineConnect=0;" vertex="1" parent="1">
          <mxGeometry x="950" y="184.5" width="90" height="61" as="geometry" />
        </mxCell>
        <mxCell id="XNmCgsL8p85qXKA9TPhM-36" style="edgeStyle=orthogonalEdgeStyle;rounded=0;orthogonalLoop=1;jettySize=auto;html=1;exitX=0.28;exitY=0.5;exitDx=0;exitDy=0;exitPerimeter=0;" edge="1" parent="1">
          <mxGeometry relative="1" as="geometry">
            <mxPoint x="891" y="356" as="targetPoint" />
            <mxPoint x="986.1999999999998" y="366.5" as="sourcePoint" />
            <Array as="points">
              <mxPoint x="960" y="367" />
              <mxPoint x="960" y="377" />
              <mxPoint x="892" y="377" />
            </Array>
          </mxGeometry>
        </mxCell>
        <mxCell id="XNmCgsL8p85qXKA9TPhM-33" value="Red-02" style="shape=mxgraph.cisco.computers_and_peripherals.laptop;sketch=0;html=1;pointerEvents=1;dashed=0;fillColor=#036897;strokeColor=#ffffff;strokeWidth=2;verticalLabelPosition=bottom;verticalAlign=top;align=center;outlineConnect=0;" vertex="1" parent="1">
          <mxGeometry x="950" y="350" width="90" height="61" as="geometry" />
        </mxCell>
        <mxCell id="XNmCgsL8p85qXKA9TPhM-34" value="Red-03" style="shape=mxgraph.cisco.computers_and_peripherals.laptop;sketch=0;html=1;pointerEvents=1;dashed=0;fillColor=#036897;strokeColor=#ffffff;strokeWidth=2;verticalLabelPosition=bottom;verticalAlign=top;align=center;outlineConnect=0;" vertex="1" parent="1">
          <mxGeometry x="950" y="510" width="90" height="61" as="geometry" />
        </mxCell>
        <mxCell id="XNmCgsL8p85qXKA9TPhM-35" style="edgeStyle=orthogonalEdgeStyle;rounded=0;orthogonalLoop=1;jettySize=auto;html=1;exitX=0;exitY=1;exitDx=0;exitDy=0;exitPerimeter=0;entryX=1;entryY=0.5;entryDx=0;entryDy=0;entryPerimeter=0;" edge="1" parent="1" source="XNmCgsL8p85qXKA9TPhM-32" target="XNmCgsL8p85qXKA9TPhM-31">
          <mxGeometry relative="1" as="geometry" />
        </mxCell>
        <mxCell id="XNmCgsL8p85qXKA9TPhM-37" style="edgeStyle=orthogonalEdgeStyle;rounded=0;orthogonalLoop=1;jettySize=auto;html=1;exitX=0.28;exitY=0.5;exitDx=0;exitDy=0;exitPerimeter=0;entryX=1;entryY=0.5;entryDx=0;entryDy=0;entryPerimeter=0;" edge="1" parent="1" source="XNmCgsL8p85qXKA9TPhM-34" target="XNmCgsL8p85qXKA9TPhM-31">
          <mxGeometry relative="1" as="geometry" />
        </mxCell>
        <mxCell id="XNmCgsL8p85qXKA9TPhM-38" style="edgeStyle=orthogonalEdgeStyle;rounded=0;orthogonalLoop=1;jettySize=auto;html=1;exitX=0;exitY=0.5;exitDx=0;exitDy=0;exitPerimeter=0;entryX=1;entryY=0.5;entryDx=0;entryDy=0;entryPerimeter=0;" edge="1" parent="1" source="XNmCgsL8p85qXKA9TPhM-31" target="XNmCgsL8p85qXKA9TPhM-4">
          <mxGeometry relative="1" as="geometry" />
        </mxCell>
        <mxCell id="XNmCgsL8p85qXKA9TPhM-39" value="" style="image;aspect=fixed;perimeter=ellipsePerimeter;html=1;align=center;shadow=0;dashed=0;spacingTop=3;image=img/lib/active_directory/internet_globe.svg;" vertex="1" parent="1">
          <mxGeometry x="540" y="363" width="50" height="50" as="geometry" />
        </mxCell>
      </root>
    </mxGraphModel>
  </diagram>
</mxfile>
